solid OpenSCAD_Model
  facet normal 0.994522 0.104529 0
    outer loop
      vertex 25 0 1
      vertex 24.4537 5.19779 0
      vertex 24.4537 5.19779 1
    endloop
  endfacet
  facet normal 0.994522 0.104529 0
    outer loop
      vertex 24.4537 5.19779 0
      vertex 25 0 1
      vertex 25 0 0
    endloop
  endfacet
  facet normal 0.951057 0.309017 0
    outer loop
      vertex 24.4537 5.19779 1
      vertex 22.8386 10.1684 0
      vertex 22.8386 10.1684 1
    endloop
  endfacet
  facet normal 0.951057 0.309017 0
    outer loop
      vertex 22.8386 10.1684 0
      vertex 24.4537 5.19779 1
      vertex 24.4537 5.19779 0
    endloop
  endfacet
  facet normal 0.866025 0.5 0
    outer loop
      vertex 22.8386 10.1684 1
      vertex 20.2254 14.6946 0
      vertex 20.2254 14.6946 1
    endloop
  endfacet
  facet normal 0.866025 0.5 0
    outer loop
      vertex 20.2254 14.6946 0
      vertex 22.8386 10.1684 1
      vertex 22.8386 10.1684 0
    endloop
  endfacet
  facet normal 0.743145 0.669131 0
    outer loop
      vertex 20.2254 14.6946 1
      vertex 16.7283 18.5786 0
      vertex 16.7283 18.5786 1
    endloop
  endfacet
  facet normal 0.743145 0.669131 0
    outer loop
      vertex 16.7283 18.5786 0
      vertex 20.2254 14.6946 1
      vertex 20.2254 14.6946 0
    endloop
  endfacet
  facet normal 0.587785 0.809017 -0
    outer loop
      vertex 16.7283 18.5786 0
      vertex 12.5 21.6506 1
      vertex 16.7283 18.5786 1
    endloop
  endfacet
  facet normal 0.587785 0.809017 0
    outer loop
      vertex 12.5 21.6506 1
      vertex 16.7283 18.5786 0
      vertex 12.5 21.6506 0
    endloop
  endfacet
  facet normal 0.406737 0.913545 -0
    outer loop
      vertex 12.5 21.6506 0
      vertex 7.72542 23.7764 1
      vertex 12.5 21.6506 1
    endloop
  endfacet
  facet normal 0.406737 0.913545 0
    outer loop
      vertex 7.72542 23.7764 1
      vertex 12.5 21.6506 0
      vertex 7.72542 23.7764 0
    endloop
  endfacet
  facet normal 0.207912 0.978148 -0
    outer loop
      vertex 7.72542 23.7764 0
      vertex 2.61321 24.863 1
      vertex 7.72542 23.7764 1
    endloop
  endfacet
  facet normal 0.207912 0.978148 0
    outer loop
      vertex 2.61321 24.863 1
      vertex 7.72542 23.7764 0
      vertex 2.61321 24.863 0
    endloop
  endfacet
  facet normal 0 1 -0
    outer loop
      vertex 2.61321 24.863 0
      vertex -2.61321 24.863 1
      vertex 2.61321 24.863 1
    endloop
  endfacet
  facet normal 0 1 0
    outer loop
      vertex -2.61321 24.863 1
      vertex 2.61321 24.863 0
      vertex -2.61321 24.863 0
    endloop
  endfacet
  facet normal -0.207912 0.978148 0
    outer loop
      vertex -2.61321 24.863 0
      vertex -7.72542 23.7764 1
      vertex -2.61321 24.863 1
    endloop
  endfacet
  facet normal -0.207912 0.978148 0
    outer loop
      vertex -7.72542 23.7764 1
      vertex -2.61321 24.863 0
      vertex -7.72542 23.7764 0
    endloop
  endfacet
  facet normal -0.406737 0.913545 0
    outer loop
      vertex -7.72542 23.7764 0
      vertex -12.5 21.6506 1
      vertex -7.72542 23.7764 1
    endloop
  endfacet
  facet normal -0.406737 0.913545 0
    outer loop
      vertex -12.5 21.6506 1
      vertex -7.72542 23.7764 0
      vertex -12.5 21.6506 0
    endloop
  endfacet
  facet normal -0.587785 0.809017 0
    outer loop
      vertex -12.5 21.6506 0
      vertex -16.7283 18.5786 1
      vertex -12.5 21.6506 1
    endloop
  endfacet
  facet normal -0.587785 0.809017 0
    outer loop
      vertex -16.7283 18.5786 1
      vertex -12.5 21.6506 0
      vertex -16.7283 18.5786 0
    endloop
  endfacet
  facet normal -0.743145 0.669131 0
    outer loop
      vertex -20.2254 14.6946 0
      vertex -16.7283 18.5786 1
      vertex -16.7283 18.5786 0
    endloop
  endfacet
  facet normal -0.743145 0.669131 0
    outer loop
      vertex -16.7283 18.5786 1
      vertex -20.2254 14.6946 0
      vertex -20.2254 14.6946 1
    endloop
  endfacet
  facet normal -0.866025 0.5 0
    outer loop
      vertex -22.8386 10.1684 0
      vertex -20.2254 14.6946 1
      vertex -20.2254 14.6946 0
    endloop
  endfacet
  facet normal -0.866025 0.5 0
    outer loop
      vertex -20.2254 14.6946 1
      vertex -22.8386 10.1684 0
      vertex -22.8386 10.1684 1
    endloop
  endfacet
  facet normal -0.951057 0.309017 0
    outer loop
      vertex -24.4537 5.19779 0
      vertex -22.8386 10.1684 1
      vertex -22.8386 10.1684 0
    endloop
  endfacet
  facet normal -0.951057 0.309017 0
    outer loop
      vertex -22.8386 10.1684 1
      vertex -24.4537 5.19779 0
      vertex -24.4537 5.19779 1
    endloop
  endfacet
  facet normal -0.994522 0.104529 0
    outer loop
      vertex -25 1.41637e-014 0
      vertex -24.4537 5.19779 1
      vertex -24.4537 5.19779 0
    endloop
  endfacet
  facet normal -0.994522 0.104529 0
    outer loop
      vertex -24.4537 5.19779 1
      vertex -25 1.41637e-014 0
      vertex -25 1.41637e-014 1
    endloop
  endfacet
  facet normal -0.994522 -0.104529 0
    outer loop
      vertex -24.4537 -5.19779 0
      vertex -25 1.41637e-014 1
      vertex -25 1.41637e-014 0
    endloop
  endfacet
  facet normal -0.994522 -0.104529 0
    outer loop
      vertex -25 1.41637e-014 1
      vertex -24.4537 -5.19779 0
      vertex -24.4537 -5.19779 1
    endloop
  endfacet
  facet normal -0.951057 -0.309017 0
    outer loop
      vertex -22.8386 -10.1684 0
      vertex -24.4537 -5.19779 1
      vertex -24.4537 -5.19779 0
    endloop
  endfacet
  facet normal -0.951057 -0.309017 0
    outer loop
      vertex -24.4537 -5.19779 1
      vertex -22.8386 -10.1684 0
      vertex -22.8386 -10.1684 1
    endloop
  endfacet
  facet normal -0.866025 -0.5 0
    outer loop
      vertex -20.2254 -14.6946 0
      vertex -22.8386 -10.1684 1
      vertex -22.8386 -10.1684 0
    endloop
  endfacet
  facet normal -0.866025 -0.5 0
    outer loop
      vertex -22.8386 -10.1684 1
      vertex -20.2254 -14.6946 0
      vertex -20.2254 -14.6946 1
    endloop
  endfacet
  facet normal -0.743145 -0.669131 0
    outer loop
      vertex -16.7283 -18.5786 0
      vertex -20.2254 -14.6946 1
      vertex -20.2254 -14.6946 0
    endloop
  endfacet
  facet normal -0.743145 -0.669131 0
    outer loop
      vertex -20.2254 -14.6946 1
      vertex -16.7283 -18.5786 0
      vertex -16.7283 -18.5786 1
    endloop
  endfacet
  facet normal -0.587785 -0.809017 0
    outer loop
      vertex -16.7283 -18.5786 0
      vertex -12.5 -21.6506 1
      vertex -16.7283 -18.5786 1
    endloop
  endfacet
  facet normal -0.587785 -0.809017 -0
    outer loop
      vertex -12.5 -21.6506 1
      vertex -16.7283 -18.5786 0
      vertex -12.5 -21.6506 0
    endloop
  endfacet
  facet normal -0.406737 -0.913545 0
    outer loop
      vertex -12.5 -21.6506 0
      vertex -7.72542 -23.7764 1
      vertex -12.5 -21.6506 1
    endloop
  endfacet
  facet normal -0.406737 -0.913545 -0
    outer loop
      vertex -7.72542 -23.7764 1
      vertex -12.5 -21.6506 0
      vertex -7.72542 -23.7764 0
    endloop
  endfacet
  facet normal -0.207912 -0.978148 0
    outer loop
      vertex -7.72542 -23.7764 0
      vertex -2.61321 -24.863 1
      vertex -7.72542 -23.7764 1
    endloop
  endfacet
  facet normal -0.207912 -0.978148 -0
    outer loop
      vertex -2.61321 -24.863 1
      vertex -7.72542 -23.7764 0
      vertex -2.61321 -24.863 0
    endloop
  endfacet
  facet normal 0 -1 0
    outer loop
      vertex -2.61321 -24.863 0
      vertex 2.61321 -24.863 1
      vertex -2.61321 -24.863 1
    endloop
  endfacet
  facet normal 0 -1 -0
    outer loop
      vertex 2.61321 -24.863 1
      vertex -2.61321 -24.863 0
      vertex 2.61321 -24.863 0
    endloop
  endfacet
  facet normal 0.207912 -0.978148 0
    outer loop
      vertex 2.61321 -24.863 0
      vertex 7.72542 -23.7764 1
      vertex 2.61321 -24.863 1
    endloop
  endfacet
  facet normal 0.207912 -0.978148 0
    outer loop
      vertex 7.72542 -23.7764 1
      vertex 2.61321 -24.863 0
      vertex 7.72542 -23.7764 0
    endloop
  endfacet
  facet normal 0.406737 -0.913545 0
    outer loop
      vertex 7.72542 -23.7764 0
      vertex 12.5 -21.6506 1
      vertex 7.72542 -23.7764 1
    endloop
  endfacet
  facet normal 0.406737 -0.913545 0
    outer loop
      vertex 12.5 -21.6506 1
      vertex 7.72542 -23.7764 0
      vertex 12.5 -21.6506 0
    endloop
  endfacet
  facet normal 0.587785 -0.809017 0
    outer loop
      vertex 12.5 -21.6506 0
      vertex 16.7283 -18.5786 1
      vertex 12.5 -21.6506 1
    endloop
  endfacet
  facet normal 0.587785 -0.809017 0
    outer loop
      vertex 16.7283 -18.5786 1
      vertex 12.5 -21.6506 0
      vertex 16.7283 -18.5786 0
    endloop
  endfacet
  facet normal 0.743145 -0.669131 0
    outer loop
      vertex 16.7283 -18.5786 1
      vertex 20.2254 -14.6946 0
      vertex 20.2254 -14.6946 1
    endloop
  endfacet
  facet normal 0.743145 -0.669131 0
    outer loop
      vertex 20.2254 -14.6946 0
      vertex 16.7283 -18.5786 1
      vertex 16.7283 -18.5786 0
    endloop
  endfacet
  facet normal 0.866025 -0.5 0
    outer loop
      vertex 20.2254 -14.6946 1
      vertex 22.8386 -10.1684 0
      vertex 22.8386 -10.1684 1
    endloop
  endfacet
  facet normal 0.866025 -0.5 0
    outer loop
      vertex 22.8386 -10.1684 0
      vertex 20.2254 -14.6946 1
      vertex 20.2254 -14.6946 0
    endloop
  endfacet
  facet normal 0.951057 -0.309017 0
    outer loop
      vertex 22.8386 -10.1684 1
      vertex 24.4537 -5.19779 0
      vertex 24.4537 -5.19779 1
    endloop
  endfacet
  facet normal 0.951057 -0.309017 0
    outer loop
      vertex 24.4537 -5.19779 0
      vertex 22.8386 -10.1684 1
      vertex 22.8386 -10.1684 0
    endloop
  endfacet
  facet normal 0.994522 -0.104529 0
    outer loop
      vertex 24.4537 -5.19779 1
      vertex 25 0 0
      vertex 25 0 1
    endloop
  endfacet
  facet normal 0.994522 -0.104529 0
    outer loop
      vertex 25 0 0
      vertex 24.4537 -5.19779 1
      vertex 24.4537 -5.19779 0
    endloop
  endfacet
  facet normal 0 0 -1
    outer loop
      vertex 24.4537 -5.19779 0
      vertex 24.4537 5.19779 0
      vertex 25 0 0
    endloop
  endfacet
  facet normal 0 0 -1
    outer loop
      vertex 22.8386 -10.1684 0
      vertex 24.4537 5.19779 0
      vertex 24.4537 -5.19779 0
    endloop
  endfacet
  facet normal 0 0 -1
    outer loop
      vertex 22.8386 -10.1684 0
      vertex 22.8386 10.1684 0
      vertex 24.4537 5.19779 0
    endloop
  endfacet
  facet normal 0 0 -1
    outer loop
      vertex 20.2254 -14.6946 0
      vertex 22.8386 10.1684 0
      vertex 22.8386 -10.1684 0
    endloop
  endfacet
  facet normal 0 0 -1
    outer loop
      vertex 20.2254 -14.6946 0
      vertex 20.2254 14.6946 0
      vertex 22.8386 10.1684 0
    endloop
  endfacet
  facet normal 0 0 -1
    outer loop
      vertex 16.7283 -18.5786 0
      vertex 20.2254 14.6946 0
      vertex 20.2254 -14.6946 0
    endloop
  endfacet
  facet normal 0 0 -1
    outer loop
      vertex 16.7283 -18.5786 0
      vertex 16.7283 18.5786 0
      vertex 20.2254 14.6946 0
    endloop
  endfacet
  facet normal 0 0 -1
    outer loop
      vertex 12.5 -21.6506 0
      vertex 16.7283 18.5786 0
      vertex 16.7283 -18.5786 0
    endloop
  endfacet
  facet normal 0 0 -1
    outer loop
      vertex 12.5 -21.6506 0
      vertex 12.5 21.6506 0
      vertex 16.7283 18.5786 0
    endloop
  endfacet
  facet normal 0 0 -1
    outer loop
      vertex 7.72542 -23.7764 0
      vertex 12.5 21.6506 0
      vertex 12.5 -21.6506 0
    endloop
  endfacet
  facet normal 0 0 -1
    outer loop
      vertex 7.72542 -23.7764 0
      vertex 7.72542 23.7764 0
      vertex 12.5 21.6506 0
    endloop
  endfacet
  facet normal 0 0 -1
    outer loop
      vertex 2.61321 -24.863 0
      vertex 7.72542 23.7764 0
      vertex 7.72542 -23.7764 0
    endloop
  endfacet
  facet normal 0 0 -1
    outer loop
      vertex 2.61321 -24.863 0
      vertex 2.61321 24.863 0
      vertex 7.72542 23.7764 0
    endloop
  endfacet
  facet normal 0 0 -1
    outer loop
      vertex -2.61321 -24.863 0
      vertex 2.61321 24.863 0
      vertex 2.61321 -24.863 0
    endloop
  endfacet
  facet normal 0 0 -1
    outer loop
      vertex -2.61321 -24.863 0
      vertex -2.61321 24.863 0
      vertex 2.61321 24.863 0
    endloop
  endfacet
  facet normal 0 0 -1
    outer loop
      vertex -7.72542 -23.7764 0
      vertex -2.61321 24.863 0
      vertex -2.61321 -24.863 0
    endloop
  endfacet
  facet normal 0 0 -1
    outer loop
      vertex -7.72542 -23.7764 0
      vertex -7.72542 23.7764 0
      vertex -2.61321 24.863 0
    endloop
  endfacet
  facet normal 0 0 -1
    outer loop
      vertex -12.5 -21.6506 0
      vertex -7.72542 23.7764 0
      vertex -7.72542 -23.7764 0
    endloop
  endfacet
  facet normal 0 0 -1
    outer loop
      vertex -12.5 -21.6506 0
      vertex -12.5 21.6506 0
      vertex -7.72542 23.7764 0
    endloop
  endfacet
  facet normal 0 0 -1
    outer loop
      vertex -16.7283 -18.5786 0
      vertex -12.5 21.6506 0
      vertex -12.5 -21.6506 0
    endloop
  endfacet
  facet normal 0 0 -1
    outer loop
      vertex -16.7283 -18.5786 0
      vertex -16.7283 18.5786 0
      vertex -12.5 21.6506 0
    endloop
  endfacet
  facet normal 0 0 -1
    outer loop
      vertex -20.2254 -14.6946 0
      vertex -16.7283 18.5786 0
      vertex -16.7283 -18.5786 0
    endloop
  endfacet
  facet normal 0 0 -1
    outer loop
      vertex -20.2254 -14.6946 0
      vertex -20.2254 14.6946 0
      vertex -16.7283 18.5786 0
    endloop
  endfacet
  facet normal 0 0 -1
    outer loop
      vertex -22.8386 -10.1684 0
      vertex -20.2254 14.6946 0
      vertex -20.2254 -14.6946 0
    endloop
  endfacet
  facet normal 0 0 -1
    outer loop
      vertex -22.8386 -10.1684 0
      vertex -22.8386 10.1684 0
      vertex -20.2254 14.6946 0
    endloop
  endfacet
  facet normal 0 0 -1
    outer loop
      vertex -24.4537 -5.19779 0
      vertex -22.8386 10.1684 0
      vertex -22.8386 -10.1684 0
    endloop
  endfacet
  facet normal 0 0 -1
    outer loop
      vertex -24.4537 -5.19779 0
      vertex -24.4537 5.19779 0
      vertex -22.8386 10.1684 0
    endloop
  endfacet
  facet normal 0 -0 -1
    outer loop
      vertex -24.4537 5.19779 0
      vertex -24.4537 -5.19779 0
      vertex -25 1.41637e-014 0
    endloop
  endfacet
  facet normal 0 0 1
    outer loop
      vertex 24.4537 5.19779 1
      vertex 24.4537 -5.19779 1
      vertex 25 0 1
    endloop
  endfacet
  facet normal 0 0 1
    outer loop
      vertex 22.8386 10.1684 1
      vertex 24.4537 -5.19779 1
      vertex 24.4537 5.19779 1
    endloop
  endfacet
  facet normal 0 0 1
    outer loop
      vertex 22.8386 10.1684 1
      vertex 22.8386 -10.1684 1
      vertex 24.4537 -5.19779 1
    endloop
  endfacet
  facet normal 0 0 1
    outer loop
      vertex 20.2254 14.6946 1
      vertex 22.8386 -10.1684 1
      vertex 22.8386 10.1684 1
    endloop
  endfacet
  facet normal 0 0 1
    outer loop
      vertex 20.2254 14.6946 1
      vertex 20.2254 -14.6946 1
      vertex 22.8386 -10.1684 1
    endloop
  endfacet
  facet normal 0 0 1
    outer loop
      vertex 16.7283 18.5786 1
      vertex 20.2254 -14.6946 1
      vertex 20.2254 14.6946 1
    endloop
  endfacet
  facet normal 0 0 1
    outer loop
      vertex 16.7283 18.5786 1
      vertex 16.7283 -18.5786 1
      vertex 20.2254 -14.6946 1
    endloop
  endfacet
  facet normal 0 0 1
    outer loop
      vertex 12.5 21.6506 1
      vertex 16.7283 -18.5786 1
      vertex 16.7283 18.5786 1
    endloop
  endfacet
  facet normal 0 0 1
    outer loop
      vertex 12.5 21.6506 1
      vertex 12.5 -21.6506 1
      vertex 16.7283 -18.5786 1
    endloop
  endfacet
  facet normal 0 0 1
    outer loop
      vertex 7.72542 23.7764 1
      vertex 12.5 -21.6506 1
      vertex 12.5 21.6506 1
    endloop
  endfacet
  facet normal 0 0 1
    outer loop
      vertex 7.72542 23.7764 1
      vertex 7.72542 -23.7764 1
      vertex 12.5 -21.6506 1
    endloop
  endfacet
  facet normal 0 0 1
    outer loop
      vertex 2.61321 24.863 1
      vertex 7.72542 -23.7764 1
      vertex 7.72542 23.7764 1
    endloop
  endfacet
  facet normal 0 0 1
    outer loop
      vertex 2.61321 24.863 1
      vertex 2.61321 -24.863 1
      vertex 7.72542 -23.7764 1
    endloop
  endfacet
  facet normal -0 0 1
    outer loop
      vertex -2.61321 24.863 1
      vertex 2.61321 -24.863 1
      vertex 2.61321 24.863 1
    endloop
  endfacet
  facet normal 0 0 1
    outer loop
      vertex -2.61321 24.863 1
      vertex -2.61321 -24.863 1
      vertex 2.61321 -24.863 1
    endloop
  endfacet
  facet normal -0 0 1
    outer loop
      vertex -7.72542 23.7764 1
      vertex -2.61321 -24.863 1
      vertex -2.61321 24.863 1
    endloop
  endfacet
  facet normal 0 0 1
    outer loop
      vertex -7.72542 23.7764 1
      vertex -7.72542 -23.7764 1
      vertex -2.61321 -24.863 1
    endloop
  endfacet
  facet normal -0 0 1
    outer loop
      vertex -12.5 21.6506 1
      vertex -7.72542 -23.7764 1
      vertex -7.72542 23.7764 1
    endloop
  endfacet
  facet normal 0 0 1
    outer loop
      vertex -12.5 21.6506 1
      vertex -12.5 -21.6506 1
      vertex -7.72542 -23.7764 1
    endloop
  endfacet
  facet normal -0 0 1
    outer loop
      vertex -16.7283 18.5786 1
      vertex -12.5 -21.6506 1
      vertex -12.5 21.6506 1
    endloop
  endfacet
  facet normal 0 0 1
    outer loop
      vertex -16.7283 18.5786 1
      vertex -16.7283 -18.5786 1
      vertex -12.5 -21.6506 1
    endloop
  endfacet
  facet normal -0 0 1
    outer loop
      vertex -20.2254 14.6946 1
      vertex -16.7283 -18.5786 1
      vertex -16.7283 18.5786 1
    endloop
  endfacet
  facet normal 0 0 1
    outer loop
      vertex -20.2254 14.6946 1
      vertex -20.2254 -14.6946 1
      vertex -16.7283 -18.5786 1
    endloop
  endfacet
  facet normal -0 0 1
    outer loop
      vertex -22.8386 10.1684 1
      vertex -20.2254 -14.6946 1
      vertex -20.2254 14.6946 1
    endloop
  endfacet
  facet normal 0 0 1
    outer loop
      vertex -22.8386 10.1684 1
      vertex -22.8386 -10.1684 1
      vertex -20.2254 -14.6946 1
    endloop
  endfacet
  facet normal -0 0 1
    outer loop
      vertex -24.4537 5.19779 1
      vertex -22.8386 -10.1684 1
      vertex -22.8386 10.1684 1
    endloop
  endfacet
  facet normal 0 0 1
    outer loop
      vertex -24.4537 5.19779 1
      vertex -24.4537 -5.19779 1
      vertex -22.8386 -10.1684 1
    endloop
  endfacet
  facet normal 0 -0 1
    outer loop
      vertex -24.4537 -5.19779 1
      vertex -24.4537 5.19779 1
      vertex -25 1.41637e-014 1
    endloop
  endfacet
endsolid OpenSCAD_Model
